<svg viewBox="0 0 268 367" xmlns="http://www.w3.org/2000/svg">
  <defs>
    <linearGradient id="brandGrad" x1="-30" y1="183.5" x2="268" y2="183.5" gradientUnits="userSpaceOnUse" gradientTransform="rotate(45 134 183.5)" color-interpolation="sRGB">
      <stop offset="0%" stop-color="#FFD86B"></stop>
      <stop offset="25%" stop-color="#FF5DB1"></stop>
      <stop offset="50%" stop-color="#8A5CFF"></stop>
      <stop offset="100%" stop-color="#5BE2FF"></stop>
    </linearGradient>
  </defs>
  <path clip-rule="evenodd" fill-rule="evenodd" fill="url(#brandGrad)" d="M71.355 0.97897C55.269 4.39697 43.207 18.515 42.216 35.085C41.192 52.195 49.238 65.227 66.649 74.662L74.33 78.824L52.915 79.209C33.482 79.559 30.965 79.806 25.715 81.882C18.563 84.711 9.44802 92.924 5.58502 100.021C0.699015 108.999 0.0240152 113.535 0.0160152 137.5C0.00801516 157.726 0.168016 159.764 2.00102 162.77C3.09802 164.569 5.23402 166.573 6.74802 167.223C8.26102 167.873 9.63802 168.49 9.80702 168.593C9.97602 168.697 10.135 186.337 10.16 207.795C10.201 243.219 10.384 247.484 12.156 254.154C18.548 278.22 38.872 293 65.571 293H72.774L73.163 299.88C73.472 305.35 74.167 307.758 76.552 311.63C79.424 316.293 79.494 316.67 78.19 320.5C74.027 332.72 82.385 348.27 95.5 352.71C97.15 353.268 100.046 355.17 101.935 356.937C109.3 363.822 118.329 366.385 135 366.323C150.582 366.265 157.235 364.276 166 357.052C168.475 355.012 171.995 352.828 173.822 352.198C185.927 348.027 193.404 333.605 190.154 320.699C189.121 316.597 189.26 315.876 192.077 310.675C194.45 306.294 195.131 303.753 195.198 299.035L195.283 293L202.892 292.965C225.7 292.86 244.126 281.996 252.424 263.762C257.565 252.462 257.963 248.292 257.859 206.701C257.807 185.911 257.93 168.79 258.133 168.653C258.335 168.517 259.739 167.873 261.252 167.223C262.766 166.573 264.902 164.569 265.999 162.77C267.825 159.775 267.993 157.715 267.996 138.299C267.998 126.616 267.502 114.719 266.891 111.799C264.27 99.271 253.662 86.376 242.285 81.888C237.09 79.839 234.256 79.548 214.5 79.038C195.28 78.542 192.879 78.306 195.5 77.172C208.808 71.414 217.368 64.06 222.211 54.222C225.266 48.017 226.935 46.62 226.935 37.311C226.935 28.524 225.169 26.794 222.812 21.764C211.752 -1.83503 180.588 -6.94303 160.184 11.499C151.434 19.408 142.793 34.185 136.933 51.261C134.802 57.471 133 59.934 133 56.638C133 54.726 127.773 42.266 122.925 32.622C115.315 17.482 105.401 7.16397 94.569 3.11197C88.091 0.687973 77.364 -0.29703 71.355 0.97897ZM74.12 19.153C69.271 20.547 66.59 22.541 63.425 27.108C61.13 30.42 60.638 32.203 60.61 37.311C60.573 44.283 62.085 47.874 67.178 52.901C72.504 58.158 84.243 63.301 97 65.965C100.025 66.597 104.419 67.538 106.764 68.057C109.11 68.576 112.606 69 114.533 69C117.85 69 118.003 68.852 117.379 66.25C113.91 51.789 102.889 31.485 94.704 24.479C90.887 21.212 82.732 17.88 79.068 18.09C78.206 18.14 75.979 18.618 74.12 19.153ZM182.718 19.437C176.636 21.607 172.193 25.089 167.328 31.5C161.007 39.827 152.775 56.932 150.603 66.25C150.025 68.731 150.227 69 152.671 69C155.595 69 165.05 67.413 171.5 65.84C195.293 60.037 205.988 52.663 207.592 40.956C208.919 31.277 203.045 21.494 194.477 19.115C189.421 17.712 187.399 17.767 182.718 19.437ZM30.5 100.19C25.554 102.789 23.335 105.217 20.621 111C18.781 114.922 18.466 117.72 18.172 132.769L17.834 150.037L41.063 149.769L64.292 149.5L65.727 144.575C73.514 117.861 108.563 106.734 130.249 124.092L133.998 127.093L138.597 123.582C156.748 109.722 183.771 114.52 196.962 133.944C199.094 137.083 201.484 141.867 202.273 144.576L203.708 149.5L226.935 149.769L250.163 150.037L249.831 132.269C249.562 117.824 249.173 113.845 247.751 111C245.163 105.819 242.009 102.546 237.29 100.144L233.08 98L133.79 98.044C34.872 98.088 34.485 98.096 30.5 100.19ZM100.5 134.881C88.556 138.004 82 146.508 82 158.877C82 170.636 83.071 172.185 109.96 199.31L133.939 223.5L157.54 200C184.655 173.001 186 171.087 186 159.493C186 150.943 183.918 145.594 178.69 140.71C173.622 135.977 170.081 134.632 162.5 134.563C154.103 134.487 149.762 136.617 143.24 144.014C136.639 151.501 131.749 151.597 125.673 144.358C118.968 136.369 109.065 132.641 100.5 134.881ZM29 208.439C29 246.531 29.119 249.242 31.008 254.292C33.482 260.904 40.044 267.951 47.186 271.665L52.5 274.428L88.75 274.816L125 275.205V257.54V239.875L99.887 214.688C73.771 188.494 69.295 183.103 66.079 173.965L64.155 168.5L46.578 168.227L29 167.954V208.439ZM203.689 168.644C203.31 169.023 203 170.17 203 171.192C203 172.214 201.371 176.301 199.379 180.275C196.177 186.664 192.706 190.567 169.384 214L143.01 240.5L143.005 257.836L143 275.171L179.25 274.827L215.5 274.483L221.352 271.529C227.574 268.389 233.703 262.254 236.494 256.371C239.435 250.174 240.038 240.515 239.765 204L239.5 168.5L221.939 168.228C212.28 168.078 204.068 168.265 203.689 168.644ZM91.211 294.189C89.377 296.023 89.761 301.483 91.911 304.139L93.822 306.5L133.234 306.783C172.232 307.063 172.676 307.043 175.374 304.921C177.75 303.052 178.062 302.179 177.8 298.138L177.5 293.5L134.961 293.239C102.708 293.042 92.128 293.272 91.211 294.189ZM95.25 324.662C92.888 325.615 93.845 330.998 96.923 334.077L99.846 337H133.846H167.847L170.805 334.511C172.432 333.142 173.984 330.867 174.253 329.455C175.294 324.011 175.16 323.993 134.179 324.079C113.455 324.122 95.938 324.385 95.25 324.662Z"/>
</svg>
