<?xml version="1.0" encoding="utf-8"?>
<!-- Generator: Adobe Illustrator 16.0.0, SVG Export Plug-In . SVG Version: 6.00 Build 0)  -->
<!DOCTYPE svg PUBLIC "-//W3C//DTD SVG 1.1//EN" "http://www.w3.org/Graphics/SVG/1.1/DTD/svg11.dtd">
<svg version="1.1" id="Layer_1" xmlns="http://www.w3.org/2000/svg" xmlns:xlink="http://www.w3.org/1999/xlink" x="0px" y="0px"
	 width="128px" height="128px" viewBox="0 0 128 128" enable-background="new 0 0 128 128" xml:space="preserve">
<g>
	<g>
		<path fill="#282D33" d="M104.689,89.608c-7.229,0-13.11-5.817-13.11-12.968c0-7.151,5.881-12.969,13.11-12.969
			s13.111,5.817,13.111,12.969C117.801,83.791,111.919,89.608,104.689,89.608z M104.689,67.684c-5.017,0-9.098,4.019-9.098,8.957
			c0,4.938,4.081,8.956,9.098,8.956c5.018,0,9.1-4.019,9.1-8.956C113.789,71.702,109.707,67.684,104.689,67.684z"/>
	</g>
	<g>
		<path fill="#282D33" d="M31.49,65.748c-9.606-22.522-0.367-50.81,13.653-57.311c0.646-0.3,1.404-0.235,1.989,0.173
			c0.584,0.406,0.91,1.093,0.855,1.804c-1.208,15.427,0.615,32.514,5.271,49.411l-3.868,1.066
			c-4.386-15.918-6.32-32.021-5.646-46.845c-9.726,7.937-16.88,30.626-8.563,50.128L31.49,65.748z"/>
	</g>
	<g>
		<path fill="#282D33" d="M67.333,55.399C63.26,39.115,56.69,24.072,47.805,10.688c-0.404-0.608-0.445-1.388-0.108-2.035
			c0.337-0.647,1-1.062,1.729-1.08c15.042-0.368,37.458,23.262,40.027,42.155l-3.976,0.541
			C83.391,34.924,66.415,15.41,53.463,12.076c7.971,12.841,13.94,27.067,17.763,42.35L67.333,55.399z"/>
	</g>
	<g>
		
			<rect x="48.548" y="76.59" transform="matrix(0.2549 0.967 -0.967 0.2549 124.602 -4.509)" fill="#282D33" width="33.358" height="4.013"/>
	</g>
	<g>
		<g>
			<path fill="#282D33" d="M27.192,128l-3.345-2.216l10.597-15.996L23.964,87.08l3.643-1.681l10.949,23.724
				c0.292,0.631,0.235,1.369-0.149,1.948L27.192,128z"/>
		</g>
		<g>
			<path fill="#282D33" d="M96.719,127.402l-3.678-13.97H36.343v-4.013h58.245c0.91,0,1.708,0.614,1.94,1.496l4.071,15.466
				L96.719,127.402z"/>
		</g>
	</g>
	<g>
		
			<rect x="41.718" y="2.325" transform="matrix(0.2546 0.9671 -0.9671 0.2546 38.2312 -40.935)" fill="#282D33" width="7.901" height="4.012"/>
	</g>
	<g>
		<path fill="#282D33" d="M97.092,111.48H93.08v-7.203H44.034c-0.807,0-1.535-0.482-1.848-1.225
			c-0.022-0.053-0.048-0.126-0.071-0.197L31.218,79.25l3.643-1.681l10.477,22.696h49.748c1.107,0,2.006,0.898,2.006,2.006V111.48z"
			/>
	</g>
	<g>
		<path fill="#282D33" d="M23.577,74.772c-4.388,0-8.379-2.387-10.417-6.229l0.015-0.009l-0.026-0.05l0.126-0.075l-0.126,0.075
			l-0.198-0.369l0.002-0.001l-0.019-0.034l0.002-0.006c-1.098-3.175-1.851-6.393-2.236-9.565
			C7.117,34.974,23.138,10.906,46.419,4.919l0.001,0.004l0.362-0.08l-0.002-0.008c3.55-0.881,7.237-1.327,10.959-1.327
			c20.316,0,39.445,13.034,46.517,31.695c1.02,2.464,1.861,5.211,2.484,8.12l0.034,0.067l0.173,0.843l-0.006,0.412
			c0.079,5.323-3.533,10.021-8.783,11.369c-3.381,0.861-7.02,0.143-9.794-1.829c-1.549,3.106-4.4,5.471-7.873,6.361
			c-3.493,0.901-7.334,0.156-10.237-1.931c-1.506,3.23-4.409,5.688-8.027,6.618c-3.512,0.897-7.249,0.188-10.114-1.825
			c-1.536,3.151-4.416,5.553-7.951,6.46c-3.472,0.889-7.154,0.196-10.002-1.762c-1.457,3.076-4.23,5.415-7.673,6.298
			C25.539,74.649,24.559,74.772,23.577,74.772z M16.692,66.659l0.011,0.004c1.32,2.489,4.019,4.098,6.874,4.098
			c0.646,0,1.29-0.081,1.915-0.242c3.021-0.774,5.257-3.247,5.696-6.3l3.533-0.99c2.024,2.453,5.328,3.551,8.447,2.754
			c3.139-0.806,5.508-3.356,6.033-6.498l3.537-0.934c2.024,2.497,5.358,3.6,8.494,2.797c3.229-0.829,5.609-3.465,6.062-6.713
			l3.578-0.945c1.555,2.027,3.999,3.236,6.537,3.236c0.702,0,1.402-0.089,2.083-0.265c3.092-0.793,5.447-3.319,6.003-6.438
			l3.563-0.873c1.86,2.409,5.123,3.538,8.107,2.778c3.391-0.87,5.816-4.017,5.766-7.481l0.001-0.055l-0.056-0.157
			c-0.578-2.773-1.367-5.383-2.348-7.754C94.011,19.488,76.425,7.52,57.74,7.52c-3.397,0-6.758,0.407-9.991,1.209l-0.245,0.056
			l-0.001-0.003l-0.044,0.013c-21.384,5.5-36.074,27.554-32.785,49.173C15.029,60.883,15.706,63.787,16.692,66.659z"/>
	</g>
</g>
</svg>
