<?xml version="1.0" encoding="utf-8"?>
<!-- Generator: Adobe Illustrator 16.0.0, SVG Export Plug-In . SVG Version: 6.00 Build 0)  -->
<!DOCTYPE svg PUBLIC "-//W3C//DTD SVG 1.1//EN" "http://www.w3.org/Graphics/SVG/1.1/DTD/svg11.dtd">
<svg version="1.1" id="Layer_1" xmlns="http://www.w3.org/2000/svg" xmlns:xlink="http://www.w3.org/1999/xlink" x="0px" y="0px"
	 width="128px" height="128px" viewBox="0 0 128 128" enable-background="new 0 0 128 128" xml:space="preserve">
<g>
	<g>
		<g>
			<path fill="#282D33" d="M91.447,127.625H36.554c-3.258,0-5.908-2.647-5.908-5.902V6.275c0-3.253,2.65-5.9,5.908-5.9h54.892
				c3.258,0,5.908,2.647,5.908,5.9v115.447c0.001,1.575-0.613,3.059-1.731,4.175C94.507,127.012,93.024,127.625,91.447,127.625z
				 M36.554,4.352c-1.065,0-1.932,0.863-1.932,1.924v115.447c0,1.062,0.867,1.926,1.932,1.926h54.894
				c1.064,0,1.931-0.864,1.931-1.926L93.377,6.275c0-1.061-0.866-1.924-1.932-1.924H36.554z"/>
		</g>
		<g>
			<rect x="33.121" y="103.484" fill="#282D33" width="61.758" height="3.977"/>
		</g>
		<g>
			<rect x="33.121" y="18.283" fill="#282D33" width="61.758" height="3.977"/>
		</g>
		<g>
			<g>
				<rect x="53.521" y="9.117" fill="#282D33" width="20.958" height="3.977"/>
			</g>
		</g>
		<g>
			<rect x="61.44" y="113.443" fill="#282D33" width="5.12" height="3.977"/>
		</g>
	</g>
	<g>
		<g>
			<rect x="115.202" y="62.421" fill="#282D33" width="12.798" height="3.977"/>
		</g>
		<g>
			<g>
				
					<rect x="114.515" y="35.336" transform="matrix(0.4219 0.9066 -0.9066 0.4219 105.1885 -81.5008)" fill="#282D33" width="3.977" height="12.794"/>
			</g>
			<g>
				
					<rect x="110.106" y="85.095" transform="matrix(0.9067 0.4219 -0.4219 0.9067 47.6139 -41.021)" fill="#282D33" width="12.794" height="3.977"/>
			</g>
		</g>
		<g>
			<rect y="62.421" fill="#282D33" width="12.799" height="3.977"/>
		</g>
		<g>
			<g>
				
					<rect x="9.507" y="80.687" transform="matrix(0.4218 0.9067 -0.9067 0.4218 85.6046 39.929)" fill="#282D33" width="3.978" height="12.793"/>
			</g>
			<g>
				
					<rect x="5.099" y="39.745" transform="matrix(0.9066 0.4219 -0.4219 0.9066 18.6807 -0.9538)" fill="#282D33" width="12.793" height="3.977"/>
			</g>
		</g>
	</g>
</g>
</svg>
