<?xml version="1.0" encoding="utf-8"?>
<!-- Generator: Adobe Illustrator 16.0.0, SVG Export Plug-In . SVG Version: 6.00 Build 0)  -->
<!DOCTYPE svg PUBLIC "-//W3C//DTD SVG 1.1//EN" "http://www.w3.org/Graphics/SVG/1.1/DTD/svg11.dtd">
<svg version="1.1" id="Layer_1" xmlns="http://www.w3.org/2000/svg" xmlns:xlink="http://www.w3.org/1999/xlink" x="0px" y="0px"
	 width="128px" height="128px" viewBox="0 0 128 128" enable-background="new 0 0 128 128" xml:space="preserve">
<g>
	<g>
		<g>
			<path fill="#282D33" d="M0.099,82.595C0.032,82.142,0,81.73,0,81.335c0-4.321,3.126-7.922,7.225-8.642
				c1.906-5.261,6.877-8.822,12.551-8.822c3.379,0,6.64,1.307,9.108,3.617c6.052-0.713,11.583,3.663,12.455,9.611l-3.98,0.583
				c-0.597-4.07-4.541-6.993-8.743-6.073l-1.142,0.251l-0.783-0.868c-1.776-1.969-4.297-3.098-6.915-3.098
				c-4.306,0-8.034,2.943-9.068,7.158l-0.375,1.533H8.754c-2.619,0-4.731,2.13-4.731,4.749c0,0.197,0.018,0.417,0.056,0.673
				L0.099,82.595z"/>
		</g>
		<g>
			<g>
				<path fill="#282D33" d="M15.02,69.534h-4.023c0-0.682,0.013-1.361,0.037-2.039l4.02,0.142
					C15.032,68.268,15.02,68.9,15.02,69.534z"/>
			</g>
			<g>
				<path fill="#282D33" d="M15.335,63.797l-3.999-0.442c0.155-1.404,0.366-2.816,0.626-4.197l3.954,0.747
					C15.675,61.184,15.479,62.493,15.335,63.797z M16.795,56.068l-3.885-1.047c0.367-1.361,0.792-2.725,1.262-4.053l3.792,1.344
					C17.528,53.543,17.135,54.807,16.795,56.068z M19.42,48.656l-3.678-1.63c0.368-0.829,0.754-1.646,1.16-2.453
					c0.23-0.457,0.467-0.91,0.709-1.36l3.541,1.91c-0.225,0.417-0.443,0.836-0.656,1.26C20.121,47.13,19.761,47.888,19.42,48.656z
					 M110.635,44.643c-0.498-0.899-1.029-1.796-1.578-2.662l3.396-2.155c0.593,0.935,1.166,1.9,1.702,2.871L110.635,44.643z
					 M23.151,41.732l-3.384-2.174c0.76-1.184,1.576-2.354,2.427-3.479l3.21,2.426C24.614,39.549,23.856,40.635,23.151,41.732z
					 M106.824,38.74c-0.783-1.046-1.616-2.075-2.475-3.06l3.029-2.646c0.927,1.061,1.824,2.17,2.667,3.298L106.824,38.74z
					 M27.895,35.459l-3.014-2.664c0.929-1.053,1.915-2.085,2.928-3.069l2.803,2.886C29.671,33.525,28.757,34.482,27.895,35.459z
					 M101.651,32.819c-0.938-0.919-1.917-1.811-2.912-2.647l2.591-3.079c1.073,0.904,2.129,1.864,3.138,2.855L101.651,32.819z
					 M33.537,29.981l-2.573-3.093c1.081-0.898,2.212-1.769,3.362-2.586l2.33,3.279C35.588,28.341,34.539,29.148,33.537,29.981z
					 M95.635,27.754c-1.062-0.762-2.165-1.492-3.281-2.171l2.09-3.438c1.203,0.731,2.394,1.52,3.539,2.342L95.635,27.754z
					 M39.947,25.432l-2.068-3.45c1.208-0.725,2.46-1.411,3.72-2.039l1.797,3.6C42.228,24.125,41.067,24.761,39.947,25.432z
					 M88.917,23.673c-1.17-0.592-2.373-1.143-3.576-1.639l1.532-3.72c1.3,0.535,2.598,1.131,3.859,1.769L88.917,23.673z
					 M46.978,21.925l-1.511-3.729c1.303-0.528,2.646-1.013,3.992-1.439l1.217,3.835C49.429,20.987,48.186,21.436,46.978,21.925z
					 M81.647,20.68c-1.243-0.402-2.517-0.76-3.786-1.063l0.936-3.913c1.37,0.328,2.746,0.714,4.089,1.147L81.647,20.68z
					 M54.466,19.551l-0.912-3.918c1.37-0.319,2.771-0.589,4.167-0.802l0.606,3.977C57.034,19.006,55.734,19.256,54.466,19.551z
					 M74.003,18.852c-1.288-0.203-2.603-0.358-3.904-0.463l0.318-4.01c1.405,0.111,2.823,0.279,4.214,0.499L74.003,18.852z
					 M62.235,18.367l-0.296-4.012c1.355-0.101,2.731-0.111,4.088-0.15h0.146v4.023h-0.147c-0.006,0-0.012,0-0.019,0
					C64.753,18.229,63.485,18.274,62.235,18.367z"/>
			</g>
			<g>
				<path fill="#282D33" d="M112.352,48.043c-0.263-0.576-0.539-1.146-0.822-1.71l3.6-1.799c0.302,0.606,0.6,1.218,0.883,1.837
					L112.352,48.043z"/>
			</g>
		</g>
		<g>
			<path fill="#282D33" d="M6.597,113.795l-2.548-3.113c14.294-11.7,37.463-18.685,61.976-18.685
				c24.512,0,47.681,6.984,61.975,18.685l-2.548,3.113c-13.599-11.13-35.813-17.774-59.427-17.774S20.196,102.665,6.597,113.795z"/>
		</g>
		<g>
			<path fill="#282D33" d="M64.607,105.764c-4.952,0-10.281-1.681-10.281-5.371h4.023c0-0.126-0.038-0.213-0.052-0.236
				c0.289,0.467,2.515,1.584,6.31,1.584c3.794,0,6.02-1.117,6.309-1.584c-0.016,0.023-0.053,0.11-0.053,0.236h4.023
				C74.887,104.083,69.559,105.764,64.607,105.764z"/>
		</g>
		<g>
			<g>
				<rect x="64.012" y="35.518" fill="#282D33" width="4.023" height="63.816"/>
			</g>
			<g>
				<polygon fill="#282D33" points="64.639,64.611 41.899,51.408 64.639,38.205 66.658,41.684 49.911,51.408 66.658,61.133 				"/>
			</g>
		</g>
	</g>
	<g>
		<g>
			<path fill="#282D33" d="M121.388,71.412c-0.276-7.486-6.319-13.352-13.755-13.352c-3.521,0-6.869,1.338-9.431,3.768l-2.768-2.92
				c3.312-3.141,7.644-4.87,12.198-4.87c9.61,0,17.419,7.566,17.776,17.226L121.388,71.412z"/>
		</g>
		<g>
			<path fill="#282D33" d="M125.485,73.352H72.582l-0.245-1.729c-0.075-0.53-0.11-0.984-0.11-1.43c0-5.013,3.682-9.179,8.471-9.911
				c2.149-6.202,7.959-10.418,14.601-10.418c3.942,0,7.758,1.545,10.626,4.271c0.597-0.063,1.163-0.095,1.711-0.095
				c9.61,0,17.418,7.567,17.774,17.228L125.485,73.352z M76.312,69.328h44.846c-1.205-6.462-6.793-11.267-13.522-11.267
				c-0.645,0-1.34,0.061-2.129,0.186l-1.066,0.168l-0.729-0.797c-2.204-2.406-5.192-3.731-8.412-3.731
				c-5.278,0-9.848,3.607-11.113,8.772l-0.375,1.533l-1.76-0.001C79.127,64.269,76.722,66.478,76.312,69.328z"/>
		</g>
	</g>
</g>
</svg>
