<?xml version="1.0" encoding="utf-8"?>
<!-- Generator: Adobe Illustrator 16.0.0, SVG Export Plug-In . SVG Version: 6.00 Build 0)  -->
<!DOCTYPE svg PUBLIC "-//W3C//DTD SVG 1.1//EN" "http://www.w3.org/Graphics/SVG/1.1/DTD/svg11.dtd">
<svg version="1.1" id="Layer_1" xmlns="http://www.w3.org/2000/svg" xmlns:xlink="http://www.w3.org/1999/xlink" x="0px" y="0px"
	 width="128px" height="128px" viewBox="0 0 128 128" enable-background="new 0 0 128 128" xml:space="preserve">
<g>
	<g>
		<g>
			<path fill="#282D33" d="M54.935,92.261H26.142c-10.758,0-17.71-8.021-17.71-20.433V59.063h4v12.765
				c0,7.944,3.602,16.433,13.71,16.433h28.793V92.261z"/>
		</g>
		<g>
			<path fill="#282D33" d="M101.76,92.261H73.764v-4h27.996c10.107,0,13.709-8.552,13.709-16.556V58.94h4v12.765
				C119.469,84,112.353,92.261,101.76,92.261z"/>
		</g>
	</g>
	<g>
		<path fill="#282D33" d="M119.613,128H8.387V51.65h111.227V128z M12.387,124h103.227V55.65H12.387V124z"/>
	</g>
	<g>
		<polygon fill="#282D33" points="90.295,52.283 86.295,52.283 86.295,41.823 85.545,41.823 85.545,37.823 90.295,37.823 		"/>
	</g>
	<g>
		<polygon fill="#282D33" points="41.703,52.283 37.703,52.283 37.703,37.823 45.1,37.823 45.1,41.823 41.703,41.823 		"/>
	</g>
	<g>
		<path fill="#282D33" d="M66.141,49.592c-2.143,0-4.029-1.114-5.103-2.789c-0.883,0.5-1.903,0.787-2.99,0.787
			c-2.048,0-3.86-1.017-4.954-2.569c-0.834,0.355-1.869,0.564-3.138,0.564c-3.335,0-6.047-2.694-6.047-6.006l-0.201-4.033
			l-0.002-18.803c0-3.712,1.583-7.148,4.377-9.577V0h4v9.13l-0.81,0.6c-2.268,1.681-3.567,4.237-3.567,7.013v18.705l0.2,4.033
			c0.003,1.204,0.921,2.104,2.05,2.104c2.047,0,2.047-0.678,2.047-1.004h4v1c0,1.107,0.917,2.009,2.045,2.009
			c1.129,0,2.047-0.901,2.047-2.009h4v2.003c0,1.107,0.918,2.008,2.046,2.008s2.045-0.901,2.045-2.008V41.33h4
			c0,0.731,0.956,1.858,2.226,1.858c1.204,0,2.185-0.962,2.185-2.145l0.022-17.131l3.998-0.083l0.084,1.974l0.002,8.366
			c0,2.272,1.877,4.12,4.185,4.12h0.057v-5.477l-0.27-1.479l0.27-0.102v-8.044L73.787,10.332c-1.11-1.018-2.471-1.743-3.941-2.099
			l-1.529-0.37V0h4v4.817c1.583,0.598,3.041,1.502,4.278,2.663l0.143,0.148l12.206,14.065v16.803l0.106,0.012l-0.106,2.298v1.328
			l-0.073,0.005l-0.009,0.149l-3.975,0.001c-1.572,0-3.043-0.442-4.291-1.208c-0.02,3.37-2.786,6.107-6.185,6.107
			c-1.052,0-2.063-0.275-2.952-0.75C70.436,48.314,68.436,49.592,66.141,49.592z"/>
	</g>
	<g>
		<g>
			<g>
				<g>
					<rect x="67.041" y="53.974" fill="#282D33" width="4" height="24.676"/>
				</g>
				<g>
					<rect x="56.958" y="53.974" fill="#282D33" width="4" height="24.676"/>
				</g>
			</g>
			<g>
				<g>
					<rect x="67.041" y="101.688" fill="#282D33" width="4" height="23.433"/>
				</g>
				<g>
					<rect x="56.958" y="101.688" fill="#282D33" width="4" height="23.433"/>
				</g>
			</g>
			<g>
				<path fill="#282D33" d="M70.039,104.247H57.961c-2.225,0-4.034-1.801-4.034-4.015V81.271c0-2.213,1.81-4.014,4.034-4.014h12.078
					c2.224,0,4.033,1.801,4.033,4.014v18.961C74.072,102.446,72.263,104.247,70.039,104.247z M57.961,81.258l-0.034,18.975
					l12.112,0.015c0.024,0,0.032-0.012,0.034-0.016l-0.001-18.96L57.961,81.258z"/>
			</g>
			<g>
				<rect x="62" y="94.256" fill="#282D33" width="4" height="6.737"/>
			</g>
		</g>
	</g>
</g>
</svg>
