<?xml version="1.0" encoding="utf-8"?>
<!-- Generator: Adobe Illustrator 16.0.0, SVG Export Plug-In . SVG Version: 6.00 Build 0)  -->
<!DOCTYPE svg PUBLIC "-//W3C//DTD SVG 1.1//EN" "http://www.w3.org/Graphics/SVG/1.1/DTD/svg11.dtd">
<svg version="1.1" id="Layer_1" xmlns="http://www.w3.org/2000/svg" xmlns:xlink="http://www.w3.org/1999/xlink" x="0px" y="0px"
	 width="128px" height="128px" viewBox="0 0 128 128" enable-background="new 0 0 128 128" xml:space="preserve">
<g>
	<g>
		<g>
			
				<rect x="117.073" y="29.635" transform="matrix(0.2093 0.9779 -0.9779 0.2093 124.288 -90.4286)" fill="#282D33" width="1.969" height="4.001"/>
		</g>
		<g>
			<path fill="#282D33" d="M115.256,28.096l-0.65-3.044l3.912-0.836l0.65,3.044L115.256,28.096z M113.955,22.009l-0.65-3.043
				l3.912-0.836l0.65,3.043L113.955,22.009z"/>
		</g>
		<g>
			<polygon fill="#282D33" points="112.745,16.146 112.735,16.104 112.692,16.113 112.28,14.188 112.312,14.182 111.884,12.24 
				115.771,11.384 116.604,15.275 114.66,15.692 114.667,15.723 			"/>
		</g>
		<g>
			<path fill="#282D33" d="M37.549,32.745l-0.862-3.906l3.763-0.831l0.862,3.906L37.549,32.745z M45.074,31.084l-0.862-3.906
				l3.763-0.831l0.862,3.906L45.074,31.084z M52.6,29.423l-0.862-3.906l3.763-0.831l0.862,3.906L52.6,29.423z M60.125,27.762
				l-0.862-3.906l3.763-0.831l0.862,3.906L60.125,27.762z M67.65,26.101l-0.861-3.906l3.764-0.831l0.861,3.906L67.65,26.101z
				 M75.177,24.439l-0.861-3.906l3.763-0.83l0.861,3.906L75.177,24.439z M82.702,22.778l-0.861-3.906l3.763-0.83l0.861,3.906
				L82.702,22.778z M90.228,21.117l-0.861-3.906l3.763-0.83l0.861,3.906L90.228,21.117z M97.754,19.456l-0.861-3.906l3.763-0.83
				l0.861,3.906L97.754,19.456z M105.279,17.795l-0.861-3.906l3.763-0.83l0.861,3.906L105.279,17.795z"/>
		</g>
		<g>
			<polygon fill="#282D33" points="33.484,34.454 29.928,32.624 31.258,30.036 34.099,29.41 34.96,33.316 33.956,33.538 			"/>
		</g>
		<g>
			<path fill="#282D33" d="M23.979,52.909l-3.556-1.831l1.588-3.084l3.556,1.831L23.979,52.909z M27.156,46.742L23.6,44.911
				l1.588-3.084l3.556,1.831L27.156,46.742z M30.333,40.574l-3.556-1.831l1.588-3.084l3.556,1.831L30.333,40.574z"/>
		</g>
		<g>
			
				<rect x="18.311" y="54.679" transform="matrix(0.8888 0.4582 -0.4582 0.8888 27.7636 -3.1193)" fill="#282D33" width="4" height="1.969"/>
		</g>
	</g>
	<g>
		<path fill="#282D33" d="M128,116.616H41.52L9.326,77.465L41.52,38.315H128V116.616z M43.41,112.616H124V42.315H43.41
			L14.504,77.465L43.41,112.616z M41.253,87.043c-5.214,0-9.456-4.296-9.456-9.576c0-5.279,4.242-9.574,9.456-9.574
			s9.456,4.295,9.456,9.574C50.709,82.747,46.467,87.043,41.253,87.043z M41.253,71.893c-3.008,0-5.456,2.501-5.456,5.574
			c0,3.075,2.448,5.576,5.456,5.576s5.456-2.501,5.456-5.576C46.709,74.394,44.261,71.893,41.253,71.893z"/>
	</g>
	<g>
		<path fill="#282D33" d="M69.333,99.9l2.794-16.557L60.321,71.646l16.319-2.408l7.333-15.102l7.338,15.102l16.318,2.408
			L95.824,83.344L98.618,99.9l-14.644-7.817L69.333,99.9z M83.975,87.548l9.345,4.989l-1.784-10.574l7.597-7.527l-10.494-1.549
			l-4.662-9.595l-4.659,9.595l-10.497,1.549l7.597,7.527l-1.784,10.574L83.975,87.548z"/>
	</g>
	<g>
		<rect y="75.465" fill="#282D33" width="39.598" height="4"/>
	</g>
</g>
</svg>
