<?xml version="1.0" encoding="utf-8"?>
<!-- Generator: Adobe Illustrator 16.0.0, SVG Export Plug-In . SVG Version: 6.00 Build 0)  -->
<!DOCTYPE svg PUBLIC "-//W3C//DTD SVG 1.1//EN" "http://www.w3.org/Graphics/SVG/1.1/DTD/svg11.dtd">
<svg version="1.1" id="Layer_1" xmlns="http://www.w3.org/2000/svg" xmlns:xlink="http://www.w3.org/1999/xlink" x="0px" y="0px"
	 width="128px" height="128px" viewBox="0 0 128 128" enable-background="new 0 0 128 128" xml:space="preserve">
<g>
	<g>
		<g>
			<path fill="#282D33" d="M50.883,39.531l-0.101-14.838l0.176-0.023c0.884-5.846,5.535-11.146,11.223-12.487
				c0.897-0.214,1.8-0.321,2.679-0.321c5.618,0,9.724,4.279,9.764,10.175c0.045,5.855-3.943,11.632-9.344,13.895l0.024,0.172
				l-1.777,0.436L50.883,39.531z M54.804,27l0.051,7.475l7.693-1.835c4.484-1.192,8.105-5.937,8.069-10.575
				c-0.024-3.708-2.339-6.198-5.758-6.198c-0.568,0-1.16,0.072-1.758,0.214c-4.476,1.057-8.193,5.724-8.288,10.403L54.804,27z"/>
		</g>
		<g>
			<path fill="#282D33" d="M54.928,39.53l-14.185-3.356v-0.157c-5.501-2.196-9.595-8.046-9.558-13.98
				c0.04-5.896,4.147-10.175,9.767-10.175c0.879,0,1.782,0.107,2.682,0.321c5.668,1.338,10.304,6.607,11.207,12.429l0.171,0.017
				l0.007,1.83L54.928,39.53z M43.701,32.757l7.257,1.718l0.051-7.479l-0.016-0.514c-0.092-4.678-3.807-9.344-8.28-10.401
				c-0.6-0.142-1.191-0.214-1.761-0.214c-3.421,0-5.735,2.491-5.761,6.196c-0.029,4.641,3.591,9.386,8.069,10.577L43.701,32.757z"/>
		</g>
		<g>
			<polygon fill="#282D33" points="44.724,57.897 0,57.897 0,35.417 105.759,35.417 105.759,55.895 101.753,55.895 101.753,39.423 
				4.006,39.423 4.006,53.892 44.724,53.892 			"/>
		</g>
		<g>
			<polygon fill="#282D33" points="102.945,116.139 2.817,116.139 2.817,55.895 6.823,55.895 6.823,112.133 98.939,112.133 
				98.939,102.613 102.945,102.613 			"/>
		</g>
	</g>
	<g>
		<g>
			<path fill="#282D33" d="M90.546,115.047L50.665,74.603V35.695h36.087L128,77.508L90.546,115.047z M54.671,72.96l35.893,36.398
				l31.794-31.866L85.078,39.701H54.671V72.96z M63.207,54.724c-1.572,0-3.046-0.618-4.149-1.741
				c-2.253-2.274-2.248-5.991,0.016-8.278c1.109-1.109,2.571-1.716,4.124-1.716c1.567,0,3.039,0.614,4.145,1.731
				c2.262,2.301,2.252,6.02-0.017,8.295C66.223,54.117,64.761,54.724,63.207,54.724z M63.197,46.994
				c-0.483,0-0.939,0.189-1.284,0.535c-0.719,0.726-0.723,1.913-0.004,2.641c0.695,0.706,1.89,0.706,2.581,0.015
				c0.724-0.725,0.725-1.916,0-2.652C64.147,47.188,63.687,46.994,63.197,46.994z"/>
		</g>
		<g>
			<g>
				<g>
					<path fill="#282D33" d="M91.066,82.351H73.701V63.701c0-5.33,4.31-9.666,9.607-9.666h0.16c5.025,0,9.161,3.906,9.566,8.861
						c2.262,0.19,4.361,1.168,5.982,2.8c1.812,1.825,2.808,4.251,2.806,6.829v0.16c0,5.328-4.31,9.664-9.607,9.664L91.066,82.351z
						 M77.707,78.345l14.507-0.001c3.091,0,5.604-2.539,5.604-5.658v-0.162c0.001-1.515-0.581-2.937-1.643-4.004
						c-1.058-1.065-2.464-1.652-3.959-1.652h-3.152v-3.168c0-3.12-2.51-5.658-5.595-5.658h-0.16c-3.088,0-5.602,2.539-5.602,5.66
						V78.345z"/>
				</g>
			</g>
		</g>
	</g>
	<g>
		<rect x="50.879" y="85.746" fill="#282D33" width="4.006" height="27.745"/>
	</g>
</g>
</svg>
