<?xml version="1.0" encoding="utf-8"?>
<!-- Generator: Adobe Illustrator 16.0.0, SVG Export Plug-In . SVG Version: 6.00 Build 0)  -->
<!DOCTYPE svg PUBLIC "-//W3C//DTD SVG 1.1//EN" "http://www.w3.org/Graphics/SVG/1.1/DTD/svg11.dtd">
<svg version="1.1" id="Layer_1" xmlns="http://www.w3.org/2000/svg" xmlns:xlink="http://www.w3.org/1999/xlink" x="0px" y="0px"
	 width="128px" height="128px" viewBox="0 0 128 128" enable-background="new 0 0 128 128" xml:space="preserve">
<g>
	<g>
		<path fill="#282D33" d="M25.808,105.945C11.578,105.945,0,94.19,0,79.741s11.578-26.204,25.808-26.204
			c14.229,0,25.805,11.755,25.805,26.204S40.037,105.945,25.808,105.945z M25.808,57.537C13.783,57.537,4,67.498,4,79.741
			s9.783,22.204,21.808,22.204c12.023,0,21.805-9.961,21.805-22.204S37.831,57.537,25.808,57.537z"/>
	</g>
	<g>
		<path fill="#282D33" d="M102.195,105.945c-14.229,0-25.807-11.755-25.807-26.204s11.577-26.204,25.807-26.204
			c14.229,0,25.805,11.755,25.805,26.204S116.424,105.945,102.195,105.945z M102.195,57.537c-12.024,0-21.807,9.961-21.807,22.204
			s9.782,22.204,21.807,22.204c12.023,0,21.805-9.961,21.805-22.204S114.219,57.537,102.195,57.537z"/>
	</g>
	<g>
		<path fill="#282D33" d="M103.81,81.864H63.05l-21.46-45.21h40.762L103.81,81.864z M65.579,77.864h31.904l-17.661-37.21H47.916
			L65.579,77.864z"/>
	</g>
	<g>
		<polygon fill="#282D33" points="25.471,81.348 21.819,79.715 47.596,22.055 58.997,22.055 58.997,26.055 50.19,26.055 		"/>
	</g>
	<g>
		<rect x="74.68" y="28.489" fill="#282D33" width="12.268" height="4"/>
	</g>
	<g>
		
			<rect x="70.066" y="38.306" transform="matrix(0.928 0.3726 -0.3726 0.928 27.3005 -22.5768)" fill="#282D33" width="4" height="42.088"/>
	</g>
</g>
</svg>
