<?xml version="1.0" encoding="utf-8"?>
<!-- Generator: Adobe Illustrator 16.0.0, SVG Export Plug-In . SVG Version: 6.00 Build 0)  -->
<!DOCTYPE svg PUBLIC "-//W3C//DTD SVG 1.1//EN" "http://www.w3.org/Graphics/SVG/1.1/DTD/svg11.dtd">
<svg version="1.1" id="Layer_1" xmlns="http://www.w3.org/2000/svg" xmlns:xlink="http://www.w3.org/1999/xlink" x="0px" y="0px"
	 width="128px" height="128px" viewBox="0 0 128 128" enable-background="new 0 0 128 128" xml:space="preserve">
<g>
	<g>
		<path fill="#282D33" d="M51.478,63.029H34.542c-9.661,0-17.52-7.82-17.52-17.432c0-9.61,7.859-17.428,17.52-17.428h13.804v4
			H34.542c-7.455,0-13.52,6.024-13.52,13.428c0,7.406,6.065,13.432,13.52,13.432h16.935V63.029z"/>
	</g>
	<g>
		<path fill="#282D33" d="M66.617,68.7h-4c0-3.133-2.568-5.682-5.724-5.682h-6.177v-4h6.177
			C62.254,59.018,66.617,63.361,66.617,68.7z"/>
	</g>
	<g>
		<polygon fill="#282D33" points="71.754,79.839 67.754,79.839 67.754,75.666 60.246,75.666 60.246,79.839 56.246,79.839 
			56.246,71.666 71.754,71.666 		"/>
	</g>
	<g>
		<path fill="#282D33" d="M93.568,128C93.568,128,93.568,128,93.568,128c-5.971,0-11.891-2.744-15.838-7.34
			c-5.789-6.748-10.65-8.344-13.733-8.482c-3.079,0.139-7.938,1.735-13.729,8.482c-3.944,4.596-9.864,7.34-15.834,7.34
			c-4.236,0-8.211-1.399-11.497-4.049c-3.615-2.907-5.642-9.087-6.852-12.778l-0.039-0.118c-1.887-5.754-2.068-6.489-3.871-14.377
			c-1.425-6.232,0.637-11.172,2.618-14.218c2.625-4.036,6.773-7.214,10.323-7.907c4.718-0.928,7.147-0.727,12.471-0.163l1.299,0.137
			c0.398,0.041,1.029,0.208,4.82,1.274c3.153,0.886,9.022,2.536,10.023,2.61l20.584-0.001c0.955-0.073,6.825-1.724,9.979-2.61
			c3.789-1.065,4.419-1.232,4.818-1.273l1.302-0.137c5.321-0.563,7.748-0.766,12.47,0.163c3.549,0.693,7.697,3.872,10.322,7.908
			c1.98,3.046,4.043,7.984,2.617,14.217c-1.809,7.911-1.99,8.647-3.868,14.377l-0.048,0.146c-1.211,3.684-3.238,9.851-6.843,12.751
			C101.779,126.601,97.804,128,93.568,128z M63.998,108.175l0.075,0.002c3.875,0.146,9.917,1.979,16.693,9.879
			C83.915,121.722,88.82,124,93.568,124l0,0c3.313,0,6.42-1.094,8.987-3.163c2.683-2.159,4.549-7.836,5.552-10.885l0.048-0.146
			c1.82-5.557,1.998-6.276,3.77-14.021c1.112-4.867-0.513-8.747-2.072-11.145c-2.274-3.498-5.614-5.748-7.738-6.163
			c-4.304-0.849-6.085-0.661-11.28-0.111l-1.309,0.138c-0.28,0.058-2.336,0.636-4.149,1.146c-6.921,1.946-9.987,2.76-11.062,2.76
			H53.684c-1.073,0-4.139-0.813-11.059-2.759c-1.814-0.511-3.871-1.089-4.241-1.159l-1.216-0.125
			c-5.198-0.548-6.982-0.737-11.281,0.111c-2.125,0.415-5.465,2.665-7.739,6.162c-1.559,2.398-3.185,6.278-2.072,11.146
			c1.764,7.721,1.941,8.438,3.772,14.021l0.039,0.117c1.002,3.057,2.867,8.744,5.56,10.91c2.568,2.07,5.675,3.164,8.988,3.164
			c4.748,0,9.652-2.278,12.799-5.945c6.778-7.898,12.816-9.731,16.688-9.878L63.998,108.175z"/>
	</g>
	<g>
		<g>
			<rect x="55.386" y="89.213" fill="#282D33" width="6.455" height="4"/>
		</g>
		<g>
			<rect x="67.297" y="89.213" fill="#282D33" width="6.456" height="4"/>
		</g>
	</g>
	<g>
		<g>
			<path fill="#282D33" d="M72.792,53.238c-14.76,0-26.768-11.942-26.768-26.621C46.024,11.94,58.032,0,72.792,0
				c14.757,0,26.763,11.94,26.763,26.617C99.555,41.296,87.549,53.238,72.792,53.238z M72.792,4
				C60.238,4,50.024,14.146,50.024,26.617c0,12.473,10.213,22.621,22.768,22.621c12.552,0,22.763-10.147,22.763-22.621
				C95.555,14.146,85.344,4,72.792,4z"/>
		</g>
		<g>
			<polygon fill="#282D33" points="68.249,35.162 61.004,27.959 63.825,25.123 68.249,29.521 81.197,16.649 84.018,19.486 			"/>
		</g>
	</g>
	<g>
		<rect x="33.334" y="86.787" fill="#282D33" width="4" height="19.615"/>
	</g>
	<g>
		<rect x="25.47" y="94.594" fill="#282D33" width="19.731" height="4"/>
	</g>
	<g>
		<rect x="85.802" y="89.689" fill="#282D33" width="4.933" height="4"/>
	</g>
	<g>
		<rect x="96.427" y="89.689" fill="#282D33" width="4.931" height="4"/>
	</g>
	<g>
		<rect x="85.802" y="98.743" fill="#282D33" width="4.933" height="4"/>
	</g>
	<g>
		<rect x="96.427" y="98.743" fill="#282D33" width="4.931" height="4"/>
	</g>
</g>
</svg>
