<?xml version="1.0" encoding="utf-8"?>
<!-- Generator: Adobe Illustrator 16.0.0, SVG Export Plug-In . SVG Version: 6.00 Build 0)  -->
<!DOCTYPE svg PUBLIC "-//W3C//DTD SVG 1.1//EN" "http://www.w3.org/Graphics/SVG/1.1/DTD/svg11.dtd">
<svg version="1.1" id="Layer_1" xmlns="http://www.w3.org/2000/svg" xmlns:xlink="http://www.w3.org/1999/xlink" x="0px" y="0px"
	 width="128px" height="128px" viewBox="0 0 128 128" enable-background="new 0 0 128 128" xml:space="preserve">
<g>
	<g>
		<polygon fill="#282D33" points="93.507,124.545 62.489,77.692 31.472,124.545 28.141,122.34 62.489,70.454 96.839,122.34 		"/>
	</g>
	<g>
		<rect x="60.492" y="75.23" fill="#282D33" width="3.996" height="47.891"/>
	</g>
	<g>
		<path fill="#282D33" d="M62.166,74.804c-1.367,0-2.722-0.33-3.967-0.981c-2.05-1.072-3.56-2.885-4.25-5.102l3.815-1.188
			c0.372,1.197,1.184,2.173,2.286,2.749c1.089,0.568,2.334,0.679,3.507,0.311c2.437-0.772,3.797-3.403,3.03-5.862l3.814-1.19
			c1.42,4.553-1.109,9.426-5.641,10.861C63.908,74.67,63.035,74.804,62.166,74.804z"/>
	</g>
	<g>
		<g>
			<path fill="#282D33" d="M29.611,79.676l-9.362-25.049l84.607-32.087l9.362,25.053L29.611,79.676z M25.384,56.952l6.564,17.563
				l77.134-29.25l-6.563-17.566L25.384,56.952z"/>
		</g>
		<g>
			<path fill="#282D33" d="M111.278,51.138l-10.955-29.312l16.724-6.345L128,44.798L111.278,51.138z M105.458,24.152l8.157,21.827
				l9.25-3.507l-8.155-21.829L105.458,24.152z"/>
		</g>
		<g>
			<path fill="#282D33" d="M6.177,83.696L0,67.17l25.578-9.702l6.177,16.529L6.177,83.696z M5.135,69.496l3.379,9.04l18.105-6.865
				l-3.378-9.042L5.135,69.496z"/>
		</g>
		<g>
			
				<rect x="83.799" y="14.699" transform="matrix(0.3545 0.9351 -0.9351 0.3545 99.5273 -49.7504)" fill="#282D33" width="3.996" height="65.024"/>
		</g>
	</g>
	<g>
		<rect x="62.552" y="21.033" fill="#282D33" width="5.03" height="3.996"/>
	</g>
	<g>
		<rect x="102.92" y="62.968" fill="#282D33" width="5.029" height="3.996"/>
	</g>
	<g>
		<rect x="86.206" y="82.346" fill="#282D33" width="5.029" height="3.996"/>
	</g>
	<g>
		<rect x="30.701" y="88.065" fill="#282D33" width="5.029" height="3.995"/>
	</g>
	<g>
		<path fill="#282D33" d="M30.533,41.336c-10.375,0-18.817-8.498-18.817-18.942c0-10.444,8.441-18.939,18.817-18.939
			c0.634,0,1.29,0.033,1.949,0.101l0.345,3.909c-4.356,1.238-7.398,5.287-7.398,9.848c0,5.645,4.554,10.239,10.15,10.239
			c4.518,0,8.53-3.065,9.759-7.454l3.911,0.335c0.067,0.659,0.101,1.319,0.101,1.962C49.35,32.839,40.909,41.336,30.533,41.336z
			 M24.199,8.885c-5.013,2.399-8.488,7.552-8.488,13.51c0,8.242,6.649,14.946,14.821,14.946c5.909,0,11.022-3.505,13.4-8.562
			c-2.37,1.751-5.278,2.768-8.354,2.768c-7.8,0-14.146-6.386-14.146-14.234C21.433,14.208,22.449,11.274,24.199,8.885z"/>
	</g>
</g>
</svg>
