<?xml version="1.0" encoding="utf-8"?>
<!-- Generator: Adobe Illustrator 16.0.0, SVG Export Plug-In . SVG Version: 6.00 Build 0)  -->
<!DOCTYPE svg PUBLIC "-//W3C//DTD SVG 1.1//EN" "http://www.w3.org/Graphics/SVG/1.1/DTD/svg11.dtd">
<svg version="1.1" id="Layer_1" xmlns="http://www.w3.org/2000/svg" xmlns:xlink="http://www.w3.org/1999/xlink" x="0px" y="0px"
	 width="128px" height="128px" viewBox="0 0 128 128" enable-background="new 0 0 128 128" xml:space="preserve">
<g>
	<g>
		<rect x="96.009" y="65.647" fill="#282D33" width="4.023" height="31.324"/>
	</g>
	<g>
		<path fill="#282D33" d="M85.273,128H26.248c-8.137,0-14.756-6.547-14.756-14.594V36.565h88.54v12.104h-4.023v-8.082H15.515v72.818
			c0,5.829,4.815,10.571,10.733,10.571h59.025c5.92,0,10.735-4.742,10.735-10.571h4.023C100.032,121.453,93.411,128,85.273,128z"/>
	</g>
	<g>
		<path fill="#282D33" d="M107.118,107.212H84.369v-4.023h22.749c2.959,0,5.367-2.364,5.367-5.271V64.807
			c0-2.909-2.408-5.274-5.367-5.274H84.369v-4.023h22.749c5.177,0,9.39,4.17,9.39,9.297v33.111
			C116.508,103.042,112.295,107.212,107.118,107.212z"/>
	</g>
	<g>
		<g>
			<path fill="#282D33" d="M71.4,28.161l-3.109-2.552c2.607-3.179,1.583-6.163-0.306-10.767c-1.762-4.297-3.954-9.646,0.305-14.84
				l3.111,2.55c-2.605,3.178-1.58,6.16,0.307,10.764C73.471,17.614,75.664,22.964,71.4,28.161z"/>
		</g>
		<g>
			<path fill="#282D33" d="M57.315,28.161l-3.111-2.552c2.608-3.179,1.583-6.163-0.304-10.767c-1.763-4.297-3.955-9.646,0.304-14.84
				l3.111,2.55c-2.605,3.178-1.581,6.16,0.307,10.764C59.385,17.614,61.579,22.964,57.315,28.161z"/>
		</g>
		<g>
			<path fill="#282D33" d="M43.233,28.161l-3.11-2.552c2.606-3.178,1.582-6.161-0.307-10.765C38.053,10.546,35.858,5.196,40.123,0
				l3.109,2.553c-2.608,3.178-1.583,6.161,0.306,10.765C45.3,17.616,47.495,22.965,43.233,28.161z"/>
		</g>
	</g>
	<g>
		<rect x="13.728" y="113.794" fill="#282D33" width="34.712" height="4.023"/>
	</g>
	<g>
		<rect x="52.737" y="113.794" fill="#282D33" width="4.625" height="4.023"/>
	</g>
	<g>
		<rect x="20.756" y="52.823" fill="#282D33" width="4.023" height="28.721"/>
	</g>
	<g>
		<rect x="20.756" y="88.356" fill="#282D33" width="4.023" height="8.563"/>
	</g>
</g>
</svg>
