<?xml version="1.0" encoding="utf-8"?>
<!-- Generator: Adobe Illustrator 16.0.0, SVG Export Plug-In . SVG Version: 6.00 Build 0)  -->
<!DOCTYPE svg PUBLIC "-//W3C//DTD SVG 1.1//EN" "http://www.w3.org/Graphics/SVG/1.1/DTD/svg11.dtd">
<svg version="1.1" id="Layer_1" xmlns="http://www.w3.org/2000/svg" xmlns:xlink="http://www.w3.org/1999/xlink" x="0px" y="0px"
	 width="128px" height="128px" viewBox="0 0 128 128" enable-background="new 0 0 128 128" xml:space="preserve">
<g>
	<g>
		<path fill="#282D33" d="M24.294,124.479c-3.288,0-6.109-2.49-6.426-5.803L7.773,13.376c-0.163-1.695,0.347-3.354,1.435-4.67
			c1.101-1.332,2.658-2.155,4.387-2.318l5.035-0.624l0.491,3.97l-5.093,0.63c-0.721,0.069-1.317,0.382-1.736,0.89
			c-0.407,0.492-0.597,1.11-0.537,1.74L21.85,118.295c0.127,1.324,1.332,2.303,2.684,2.172l57.17-5.291l0.369,3.982l-57.168,5.291
			C24.7,124.469,24.496,124.479,24.294,124.479z"/>
	</g>
	<g>
		<path fill="#282D33" d="M81.668,118.584h-50.68c-3.561,0-6.458-2.873-6.458-6.404V6.406C24.532,2.873,27.429,0,30.988,0h68.375
			c3.563,0,6.461,2.874,6.461,6.406v70.215h-4V6.406c0-1.327-1.104-2.406-2.461-2.406H30.988c-1.354,0-2.457,1.08-2.458,2.407
			V112.18c0,1.326,1.103,2.404,2.458,2.404h50.68V118.584z"/>
	</g>
	<g>
		<g>
			<rect x="38.744" y="26.825" fill="#282D33" width="13.714" height="4"/>
		</g>
		<g>
			<polygon fill="#282D33" points="38.683,35.286 34.954,33.839 43.737,11.209 47.466,11.209 56.249,33.839 52.52,35.286 
				45.602,17.458 			"/>
		</g>
	</g>
	<g>
		<g>
			<path fill="#282D33" d="M97.843,104.98c-0.339,0-0.679-0.086-0.983-0.26L76.81,93.396c-0.627-0.354-1.015-1.016-1.017-1.736
				c-0.002-0.719,0.384-1.385,1.009-1.742l20.178-11.514c0.61-0.348,1.362-0.35,1.975-0.004l20.053,11.326
				c0.627,0.354,1.015,1.018,1.017,1.736c0.002,0.721-0.384,1.385-1.009,1.742l-20.181,11.512
				C98.526,104.893,98.185,104.98,97.843,104.98z M81.844,91.646l15.994,9.033l16.134-9.203l-15.996-9.035L81.844,91.646z"/>
		</g>
		<g>
			<g>
				<path fill="#282D33" d="M98.075,128c-0.344,0-0.688-0.09-0.995-0.266c-0.615-0.354-0.998-1.006-1.005-1.715L95.843,103
					c-0.007-0.725,0.379-1.398,1.009-1.758l20.181-11.512c0.617-0.352,1.372-0.35,1.987,0.002c0.614,0.354,0.997,1.006,1.004,1.715
					l0.233,23.012c0.007,0.727-0.379,1.398-1.009,1.758l-20.182,11.52C98.76,127.912,98.417,128,98.075,128z M99.854,104.135
					l0.187,18.439l16.204-9.248l-0.188-18.436L99.854,104.135z"/>
			</g>
		</g>
		<g>
			<g>
				<path fill="#282D33" d="M98.095,128c-0.005,0-0.013,0-0.02,0c-0.339,0-0.678-0.086-0.983-0.26L77.04,116.416
					c-0.622-0.352-1.01-1.008-1.017-1.721l-0.23-23.02c-0.007-0.715,0.368-1.379,0.983-1.742s1.377-0.371,2-0.02l20.05,11.324
					c0.622,0.352,1.01,1.008,1.017,1.721l0.229,22.736c0.015,0.1,0.022,0.201,0.022,0.305C100.095,127.104,99.2,128,98.095,128z
					 M80.012,113.5l16.028,9.053l-0.186-18.398l-16.027-9.053L80.012,113.5z"/>
			</g>
		</g>
	</g>
	<g>
		<g>
			<g>
				<path fill="#282D33" d="M65.18,78.408L51.211,64.604c-1.929-1.909-2.99-4.444-2.989-7.142c0-2.697,1.061-5.231,2.986-7.135
					l0.135-0.131c1.91-1.887,4.462-2.933,7.176-2.933c2.472,0,4.81,0.868,6.66,2.458c1.85-1.59,4.188-2.458,6.66-2.458
					c2.714,0,5.267,1.045,7.188,2.944l0.132,0.133c1.913,1.891,2.975,4.425,2.976,7.123c0,2.698-1.062,5.233-2.989,7.139
					L65.18,78.408z M58.519,51.263c-1.654,0-3.208,0.635-4.376,1.789l-0.134,0.131c-1.147,1.135-1.787,2.66-1.787,4.28
					c0,1.621,0.639,3.146,1.799,4.295L65.18,72.783l11.153-11.028c1.161-1.147,1.801-2.672,1.801-4.292
					c-0.001-1.621-0.64-3.145-1.802-4.292L76.2,53.038c-1.153-1.14-2.707-1.775-4.361-1.775c-1.655,0-3.209,0.635-4.376,1.789
					l-2.281,2.261l-2.288-2.262C61.727,51.898,60.173,51.263,58.519,51.263z"/>
			</g>
		</g>
	</g>
</g>
</svg>
