<?xml version="1.0" encoding="utf-8"?>
<!-- Generator: Adobe Illustrator 16.0.0, SVG Export Plug-In . SVG Version: 6.00 Build 0)  -->
<!DOCTYPE svg PUBLIC "-//W3C//DTD SVG 1.1//EN" "http://www.w3.org/Graphics/SVG/1.1/DTD/svg11.dtd">
<svg version="1.1" id="Layer_1" xmlns="http://www.w3.org/2000/svg" xmlns:xlink="http://www.w3.org/1999/xlink" x="0px" y="0px"
	 width="128px" height="128px" viewBox="0 0 128 128" enable-background="new 0 0 128 128" xml:space="preserve">
<g>
	<g>
		<path fill="#282D33" d="M87.063,33.695h-4c0-0.537-0.022-1.078-0.068-1.609l3.986-0.339C87.035,32.39,87.063,33.046,87.063,33.695
			z M44.939,33.695h-4c0-1.465,0.142-2.932,0.421-4.358l3.926,0.769C45.057,31.279,44.939,32.487,44.939,33.695z M82.339,28.544
			c-0.331-1.15-0.778-2.277-1.33-3.349l3.557-1.83c0.67,1.302,1.214,2.672,1.617,4.071L82.339,28.544z M46.32,26.655l-3.701-1.517
			c0.552-1.346,1.239-2.648,2.045-3.872l3.341,2.199C47.341,24.474,46.774,25.547,46.32,26.655z M79.055,22.162
			c-0.744-0.943-1.585-1.822-2.497-2.612l2.615-3.025c1.104,0.955,2.122,2.018,3.022,3.161L79.055,22.162z M50.271,20.654
			l-2.861-2.795c1.018-1.041,2.14-1.991,3.337-2.824l2.285,3.283C52.041,19.008,51.112,19.793,50.271,20.654z M73.609,17.456
			c-1.044-0.603-2.15-1.108-3.287-1.502l1.311-3.779c1.375,0.477,2.713,1.088,3.977,1.817L73.609,17.456z M56.181,16.545
			l-1.625-3.655c1.333-0.592,2.728-1.06,4.146-1.389l0.905,3.896C58.435,15.669,57.282,16.056,56.181,16.545z M66.813,15.097
			c-1.19-0.173-2.419-0.233-3.619-0.185l-0.165-3.997c1.443-0.058,2.925,0.016,4.358,0.224L66.813,15.097z"/>
	</g>
	<g>
		<g>
			<g>
				<path fill="#282D33" d="M81.433,72.893H46.509l-0.128-1.864c-0.244-3.582-1.057-6.448-2.288-8.07
					c-12.307-15.641-12.651-30.633-12.651-30.78C31.441,14.435,46.047,0,64,0s32.559,14.435,32.559,32.178
					c0,0.147-0.345,15.124-12.676,30.807c-1.221,1.604-2.049,4.473-2.313,8.055L81.433,72.893z M50.195,68.893H77.77
					c0.365-2.784,1.179-6.03,2.95-8.355c11.514-14.645,11.839-28.227,11.839-28.359C92.559,16.641,79.747,4,64,4
					S35.441,16.641,35.441,32.178c0,0.133,0.321,13.725,11.816,28.334C48.772,62.506,49.753,65.314,50.195,68.893z"/>
			</g>
			<g>
				<g>
					
						<rect x="35.995" y="52.226" transform="matrix(0.1794 0.9838 -0.9838 0.1794 96.7136 -7.4966)" fill="#282D33" width="33.711" height="4"/>
				</g>
				<g>
					
						<rect x="73.153" y="37.37" transform="matrix(0.9838 0.1792 -0.1792 0.9838 10.9331 -12.5888)" fill="#282D33" width="4" height="33.714"/>
				</g>
			</g>
			<g>
				<polygon fill="#282D33" points="54.674,44.056 49.236,41.759 50.792,38.075 54.674,39.714 59.333,37.746 63.991,39.714 
					68.654,37.746 73.32,39.714 77.209,38.074 78.764,41.76 73.32,44.055 68.654,42.088 63.99,44.056 59.333,42.088 				"/>
			</g>
			<g>
				<rect x="44.133" y="69.247" fill="#282D33" width="39.737" height="4"/>
			</g>
			<g>
				<rect x="44.133" y="76.871" fill="#282D33" width="39.737" height="4"/>
			</g>
			<g>
				<path fill="#282D33" d="M64.001,92.052C64.001,92.052,64.001,92.052,64.001,92.052c-4.888,0-9.304-2.269-12.117-6.223
					l3.26-2.318c2.053,2.886,5.281,4.541,8.857,4.541c3.575,0,6.805-1.655,8.857-4.541l3.26,2.318
					C73.305,89.783,68.888,92.052,64.001,92.052z"/>
			</g>
			<g>
				<rect x="46.745" y="71.654" fill="#282D33" width="4" height="8.006"/>
			</g>
		</g>
		<g>
			<rect x="62.001" y="89.467" fill="#282D33" width="4" height="38.533"/>
		</g>
	</g>
	<g>
		<g>
			<path fill="#282D33" d="M49.365,116.777c-14.252,0-25.848-11.459-25.848-25.545c0-0.712,0.056-1.403,0.101-1.959l0.105-1.32
				l1.258-0.418c2.689-0.893,5.458-1.346,8.229-1.346c14.252,0,25.847,11.462,25.847,25.551c0,0.634-0.045,1.23-0.089,1.808
				l-0.111,1.466l-1.264,0.42C54.906,116.325,52.138,116.777,49.365,116.777z M27.521,90.947c-0.002,0.096-0.004,0.19-0.004,0.285
				c0,11.88,9.801,21.545,21.848,21.545c1.907,0,3.815-0.254,5.688-0.757c0.003-0.093,0.004-0.187,0.004-0.28
				c0-11.883-9.801-21.551-21.847-21.551C31.304,90.189,29.396,90.444,27.521,90.947z"/>
		</g>
		<g>
			<path fill="#282D33" d="M78.639,116.777c-2.771,0-5.541-0.452-8.23-1.344l-1.262-0.419l-0.103-1.325
				c-0.05-0.643-0.099-1.276-0.099-1.949c0-14.089,11.595-25.551,25.846-25.551c2.778,0,5.548,0.453,8.231,1.347l1.258,0.419
				l0.104,1.321c0.054,0.682,0.098,1.299,0.098,1.956C104.482,105.318,92.889,116.777,78.639,116.777z M72.949,112.021
				c1.874,0.503,3.783,0.757,5.689,0.757c12.045,0,21.844-9.665,21.844-21.545c0-0.095-0.001-0.19-0.004-0.286
				c-1.87-0.503-3.777-0.757-5.688-0.757c-12.046,0-21.846,9.668-21.846,21.551C72.945,111.833,72.946,111.927,72.949,112.021z"/>
		</g>
	</g>
</g>
</svg>
