<?xml version="1.0" encoding="utf-8"?>
<!-- Generator: Adobe Illustrator 16.0.0, SVG Export Plug-In . SVG Version: 6.00 Build 0)  -->
<!DOCTYPE svg PUBLIC "-//W3C//DTD SVG 1.1//EN" "http://www.w3.org/Graphics/SVG/1.1/DTD/svg11.dtd">
<svg version="1.1" id="Layer_1" xmlns="http://www.w3.org/2000/svg" xmlns:xlink="http://www.w3.org/1999/xlink" x="0px" y="0px"
	 width="128px" height="128px" viewBox="0 0 128 128" enable-background="new 0 0 128 128" xml:space="preserve">
<g>
	<g>
		<g>
			<path fill="#282D33" d="M85.01,96.732H42.92l-1.996-1.864c-0.239-3.504-0.993-8.297-3.225-11.23
				C21.234,62.759,20.773,42.816,20.773,42.621C20.773,19.12,40.165,0,63.999,0c23.836,0,43.228,19.119,43.228,42.62
				c0,0.195-0.461,20.116-16.953,41.044c-2.226,2.915-3.008,7.711-3.27,11.217L85.01,96.732z M44.749,92.732h38.443
				c0.442-3.783,1.493-8.34,3.921-11.521c15.677-19.893,16.114-38.41,16.114-38.592C103.227,21.325,85.629,4,63.999,4
				C42.37,4,24.773,21.325,24.773,42.621c0,0.182,0.438,18.721,16.088,38.567C43.298,84.391,44.328,88.947,44.749,92.732z"/>
		</g>
		<g>
			<g>
				<rect x="37.193" y="93.214" fill="#282D33" width="53.613" height="4"/>
			</g>
			<g>
				<rect x="37.193" y="103.477" fill="#282D33" width="53.613" height="4"/>
			</g>
			<g>
				<rect x="37.193" y="113.736" fill="#282D33" width="53.613" height="4"/>
			</g>
			<g>
				<rect x="44.484" y="124" fill="#282D33" width="39.033" height="4"/>
			</g>
			<g>
				<rect x="41.416" y="95.76" fill="#282D33" width="4" height="19.499"/>
			</g>
		</g>
	</g>
	<g>
		<g>
			<path fill="#282D33" d="M80.748,68.592l-2.102-3.402c0.517-0.32,1.029-0.661,1.522-1.015l2.332,3.25
				C81.934,67.831,81.344,68.225,80.748,68.592z"/>
		</g>
		<g>
			<path fill="#282D33" d="M43.817,66.131c-1.06-0.872-2.073-1.823-3.009-2.825l2.922-2.731c0.818,0.875,1.703,1.706,2.629,2.468
				L43.817,66.131z M85.773,64.729l-2.742-2.912c0.91-0.857,1.77-1.786,2.556-2.762l3.115,2.51
				C87.802,62.684,86.816,63.748,85.773,64.729z M38.086,59.96c-0.829-1.176-1.58-2.419-2.234-3.693l3.559-1.826
				c0.569,1.109,1.224,2.191,1.946,3.215L38.086,59.96z M91.169,58.027l-3.432-2.055c0.644-1.076,1.216-2.203,1.699-3.35
				l3.686,1.554C92.566,55.496,91.909,56.791,91.169,58.027z M34.155,52.295c-0.47-1.358-0.847-2.762-1.121-4.172l3.927-0.762
				c0.238,1.226,0.565,2.445,0.974,3.625L34.155,52.295z M94.514,50.09l-3.867-1.02c0.317-1.206,0.552-2.446,0.696-3.686
				l3.973,0.462C95.149,47.274,94.88,48.702,94.514,50.09z M32.513,43.834c-0.026-0.524-0.04-1.052-0.04-1.583
				c0-0.908,0.041-1.827,0.12-2.73l3.984,0.352c-0.069,0.787-0.104,1.587-0.104,2.378c0,0.462,0.012,0.922,0.035,1.379
				L32.513,43.834z M91.519,41.63c-0.029-1.251-0.146-2.51-0.349-3.739l3.947-0.649c0.232,1.414,0.367,2.859,0.399,4.297
				L91.519,41.63z M37.169,36.167l-3.896-0.909c0.327-1.399,0.756-2.787,1.275-4.125l3.729,1.447
				C37.826,33.744,37.453,34.951,37.169,36.167z M90.302,34.239c-0.375-1.192-0.837-2.368-1.376-3.494l3.609-1.726
				c0.619,1.295,1.151,2.648,1.583,4.021L90.302,34.239z M39.879,29.187l-3.489-1.956c0.7-1.249,1.496-2.462,2.364-3.606l3.186,2.42
				C41.182,27.042,40.489,28.099,39.879,29.187z M87.073,27.474c-0.688-1.04-1.457-2.043-2.287-2.983l2.998-2.647
				c0.952,1.078,1.835,2.229,2.625,3.422L87.073,27.474z M44.415,23.214l-2.823-2.834c1.014-1.01,2.108-1.961,3.254-2.826
				l2.411,3.191C46.256,21.501,45.3,22.332,44.415,23.214z M82.107,21.847c-0.948-0.816-1.962-1.574-3.012-2.253l2.172-3.359
				c1.202,0.777,2.363,1.646,3.449,2.581L82.107,21.847z M50.41,18.686l-1.955-3.489c1.249-0.7,2.561-1.321,3.897-1.846l1.461,3.724
				C52.646,17.533,51.5,18.075,50.41,18.686z M75.806,17.771c-1.136-0.531-2.316-0.988-3.51-1.359l1.186-3.82
				c1.367,0.424,2.72,0.948,4.02,1.556L75.806,17.771z M57.405,15.941l-0.941-3.888c1.388-0.336,2.816-0.581,4.245-0.727
				l0.407,3.979C59.867,15.434,58.619,15.647,57.405,15.941z M68.634,15.541c-1.23-0.205-2.492-0.329-3.75-0.368l0.125-3.998
				c1.436,0.045,2.877,0.187,4.283,0.421L68.634,15.541z"/>
		</g>
		<g>
			<path fill="#282D33" d="M47.247,68.589c-0.627-0.39-1.2-0.771-1.749-1.166l2.336-3.248c0.496,0.357,1.005,0.694,1.525,1.017
				L47.247,68.589z"/>
		</g>
	</g>
	<g>
		<g>
			<polygon fill="#282D33" points="76.066,49.065 72.066,49.065 72.066,46.239 63.999,32.113 55.934,46.239 55.934,49.065 
				51.934,49.065 51.934,45.177 63.999,24.047 76.066,45.177 			"/>
		</g>
		<g>
			<path fill="#282D33" d="M72.753,50.349v43.497H55.247V50.349H72.753 M76.689,46.413H51.31v51.369h25.38V46.413L76.689,46.413z"/>
		</g>
		<g>
			<rect x="62" y="49.647" fill="#282D33" width="4" height="45.158"/>
		</g>
	</g>
</g>
</svg>
