<?xml version="1.0" encoding="utf-8"?>
<!-- Generator: Adobe Illustrator 16.0.0, SVG Export Plug-In . SVG Version: 6.00 Build 0)  -->
<!DOCTYPE svg PUBLIC "-//W3C//DTD SVG 1.1//EN" "http://www.w3.org/Graphics/SVG/1.1/DTD/svg11.dtd">
<svg version="1.1" id="Layer_1" xmlns="http://www.w3.org/2000/svg" xmlns:xlink="http://www.w3.org/1999/xlink" x="0px" y="0px"
	 width="128px" height="128px" viewBox="0 0 128 128" enable-background="new 0 0 128 128" xml:space="preserve">
<g>
	<g>
		<g>
			<path fill="#282D33" d="M112.581,96.631l-2.901-2.766c2.826-2.965,4.383-6.859,4.383-10.965V50.462h4.009V82.9
				C118.071,88.041,116.122,92.916,112.581,96.631z"/>
		</g>
		<g>
			<path fill="#282D33" d="M75.61,95.703c-3.008-3.572-4.664-8.119-4.664-12.803V50.462h4.009V82.9c0,3.74,1.321,7.369,3.723,10.221
				L75.61,95.703z"/>
		</g>
		<g>
			<path fill="#282D33" d="M63.372,108.383l-3.434-2.07c4.799-7.963,14.321-13.904,25.471-15.891l0.703,3.945
				C76.084,96.154,67.583,101.395,63.372,108.383z"/>
		</g>
		<g>
			<path fill="#282D33" d="M124.566,108.383c-4.205-6.975-12.688-12.211-22.693-14.006l0.709-3.947
				c11.124,1.998,20.627,7.936,25.418,15.883L124.566,108.383z"/>
		</g>
		<g>
			<path fill="#282D33" d="M114.924,75.16v-4.01c3.099,0,5.62-2.531,5.62-5.645c0-3.114-2.521-5.647-5.62-5.647V55.85
				c5.31,0,9.629,4.332,9.629,9.656C124.553,70.828,120.233,75.16,114.924,75.16z"/>
		</g>
		<g>
			<path fill="#282D33" d="M74.096,75.16c-5.311,0-9.631-4.332-9.631-9.654c0-5.325,4.32-9.656,9.631-9.656v4.009
				c-3.1,0-5.622,2.534-5.622,5.647c0,3.113,2.522,5.645,5.622,5.645V75.16z"/>
		</g>
		<g>
			<path fill="#282D33" d="M93.968,103.477c-5.498,0-9.971-4.486-9.971-9.998v-7.711h4.009v7.711c0,3.301,2.674,5.988,5.962,5.988
				c3.287,0,5.962-2.688,5.962-5.988v-7.711h4.009v7.711C103.938,98.99,99.465,103.477,93.968,103.477z"/>
		</g>
		<g>
			<path fill="#282D33" d="M98.259,88.666H90.76c-10.926,0-19.813-8.914-19.813-19.871V36.356c0-10.957,8.888-19.871,19.813-19.871
				h7.499c10.925,0,19.813,8.914,19.813,19.871v32.438C118.071,79.752,109.184,88.666,98.259,88.666z M90.76,20.495
				c-8.715,0-15.805,7.116-15.805,15.862v32.438c0,8.746,7.09,15.861,15.805,15.861h7.499c8.714,0,15.804-7.115,15.804-15.861
				V36.356c0-8.746-7.09-15.862-15.804-15.862H90.76z"/>
		</g>
		<g>
			<path fill="#282D33" d="M118.071,59.946l-2.187-0.199c-8.443-0.77-16.492-7.592-21.374-17.805
				c-4.885,10.213-12.934,17.036-21.378,17.805l-2.187,0.199V36.357c0-10.957,8.888-19.871,19.813-19.871h7.499
				c10.925,0,19.813,8.914,19.813,19.87V59.946z M90.76,20.496c-8.715,0-15.805,7.116-15.805,15.862v19.027
				c7.286-1.797,14.059-9.126,17.666-19.351l1.89-5.361l1.89,5.361c3.606,10.225,10.376,17.554,17.662,19.351V36.356
				c0-8.746-7.09-15.861-15.804-15.861H90.76z"/>
		</g>
		<g>
			<path fill="#282D33" d="M94.835,79.262h-3.28c-3.689,0-6.691-3.008-6.691-6.703v-5.297h16.662v5.297
				C101.525,76.254,98.523,79.262,94.835,79.262z M88.872,71.271v1.287c0,1.484,1.204,2.693,2.683,2.693h3.28
				c1.479,0,2.682-1.209,2.682-2.693v-1.287H88.872z"/>
		</g>
	</g>
	<g>
		<g>
			<path fill="#282D33" d="M4.009,111.514H0v-11.072c0-5.988,5.375-10.859,11.982-10.859h43.783v4.008H11.982
				c-4.396,0-7.973,3.074-7.973,6.852V111.514z"/>
		</g>
		<g>
			<path fill="#282D33" d="M33.872,87.529c-13.396,0-24.293-10.93-24.293-24.367V45.276h4.009v17.886
				c0,11.226,9.1,20.359,20.285,20.359c11.186,0,20.287-9.133,20.287-20.359V45.648h4.009v17.514
				C58.167,76.6,47.269,87.529,33.872,87.529z"/>
		</g>
		<g>
			<path fill="#282D33" d="M13.389,65.551H1.495V34.397c0-5.525,4.482-10.021,9.993-10.021h4.78
				c2.328-2.949,5.857-4.679,9.643-4.679l39.496,0.001v10.468c0,6.808-5.523,12.347-12.312,12.347H17.007
				c-1.995,0-3.618,1.631-3.618,3.636V65.551z M5.503,61.541H9.38V46.15c0-4.215,3.421-7.645,7.627-7.645h36.088
				c4.579,0,8.304-3.741,8.304-8.338v-6.459H25.911c0,0-0.001,0-0.002,0c-2.801,0-5.394,1.409-6.938,3.77l-0.594,0.907h-6.889
				c-3.3,0-5.984,2.697-5.984,6.012V61.541z"/>
		</g>
		<g>
			<rect x="37.764" y="92.807" fill="#282D33" width="4.009" height="10.346"/>
		</g>
		<g>
			<rect x="30.266" y="92.807" fill="#282D33" width="4.009" height="10.346"/>
		</g>
	</g>
	<g>
		<g>
			<path fill="#282D33" d="M34.551,76.861c-5.764,0-10.48-5.041-10.737-11.478L23.73,63.3h21.64l-0.083,2.085
				C45.029,71.82,40.313,76.861,34.551,76.861z M28.136,67.309c0.875,3.232,3.422,5.543,6.415,5.543
				c2.991,0,5.537-2.311,6.413-5.543H28.136z"/>
		</g>
	</g>
</g>
</svg>
